<?xml version="1.0" standalone="no"?>
<!DOCTYPE svg PUBLIC "-//W3C//DTD SVG 20010904//EN"
 "http://www.w3.org/TR/2001/REC-SVG-20010904/DTD/svg10.dtd">
<svg version="1.0" xmlns="http://www.w3.org/2000/svg"
 width="1024.000000pt" height="1024.000000pt" viewBox="0 0 1024.000000 1024.000000"
 preserveAspectRatio="xMidYMid meet">
<metadata>
Created by potrace 1.14, written by Peter Selinger 2001-2017
</metadata>
<g transform="translate(0.000000,1024.000000) scale(0.100000,-0.100000)"
fill="#000000" stroke="none">
<path d="M7580 8925 c-729 -29 -1393 -48 -2006 -58 -122 -2 -166 -6 -182 -17
-12 -8 -191 -274 -398 -590 -207 -316 -381 -581 -388 -588 -9 -9 -64 22 -266
153 -140 91 -265 168 -277 171 -17 5 -376 -179 -1400 -716 -758 -398 -1382
-726 -1387 -730 -8 -8 6 -1248 20 -1805 l5 -230 -636 -469 c-350 -258 -643
-479 -651 -490 -20 -29 -17 -61 9 -90 24 -27 3413 -1776 3442 -1776 9 0 114
-67 233 -148 120 -82 227 -154 239 -160 28 -16 104 -15 124 1 8 7 20 20 25 29
5 9 592 393 1304 852 712 459 1305 843 1317 854 21 19 23 30 23 115 l0 95 63
16 c34 9 215 55 402 102 l340 86 475 5 c434 5 479 7 516 24 39 17 101 104 878
1235 l836 1216 0 191 0 192 -806 1260 c-443 693 -817 1270 -830 1283 -31 27
49 28 -1024 -13z m1714 -1355 l782 -1225 -55 -7 c-66 -8 -3069 -74 -3074 -67
-11 13 -1367 2402 -1367 2408 0 4 87 11 193 15 105 3 424 15 707 26 283 11
765 29 1070 40 305 12 643 25 750 29 107 4 199 7 203 7 4 -1 360 -552 791
-1226z m-3154 -214 c430 -755 679 -1204 675 -1214 -3 -8 -43 -74 -88 -145
l-82 -129 -6 93 c-4 52 -7 153 -8 226 -1 122 -3 134 -23 157 -13 13 -437 293
-943 622 -506 328 -922 598 -924 600 -2 1 104 166 235 366 131 200 285 435
342 522 l104 159 18 -29 c10 -16 325 -568 700 -1228z m-943 -282 c631 -411
1156 -752 1166 -759 15 -11 -148 -107 -1213 -718 l-1231 -705 -1232 779 c-678
428 -1231 782 -1230 786 1 6 2570 1360 2585 1362 4 1 524 -335 1155 -745z
m-2545 -1575 c662 -418 1206 -763 1210 -767 7 -7 72 -3081 66 -3106 -2 -8
-488 318 -1216 814 -667 455 -1218 832 -1223 837 -13 13 -57 2983 -45 2983 3
0 546 -342 1208 -761z m3798 634 c0 -10 27 -668 60 -1463 57 -1390 58 -1446
41 -1460 -29 -25 -2415 -1559 -2426 -1559 -8 -1 -64 1900 -86 2946 l-4 173
1200 689 c660 379 1203 690 1208 690 4 1 7 -7 7 -16z m3372 -401 c-158 -230
-534 -778 -837 -1219 l-550 -802 -60 -5 c-33 -3 -421 -8 -862 -12 l-803 -6 -2
96 c-1 53 -2 105 -2 117 -1 16 12 24 66 43 85 28 168 85 204 139 38 57 44 137
16 193 -40 78 -161 160 -265 179 -20 4 -39 10 -42 14 -2 4 -11 192 -19 417 -9
225 -18 467 -20 539 l-6 129 172 271 c94 148 172 271 173 273 1 1 515 12 1141
22 1439 25 1430 25 1731 28 l252 2 -287 -418z"/>
<path d="M8150 8403 c-137 -17 -249 -62 -319 -128 -60 -56 -81 -98 -81 -159 0
-237 455 -370 768 -225 89 40 136 81 166 141 45 90 27 168 -56 245 -57 51
-105 77 -196 102 -72 20 -219 33 -282 24z"/>
<path d="M6445 8374 c-321 -52 -472 -253 -319 -423 85 -95 231 -145 419 -145
162 1 274 32 372 103 248 179 52 451 -336 466 -58 2 -119 1 -136 -1z"/>
<path d="M8694 7341 c-232 -57 -356 -209 -285 -349 64 -125 239 -202 458 -202
458 0 659 343 298 511 -126 59 -325 76 -471 40z"/>
<path d="M7084 7250 c-338 -88 -398 -355 -111 -491 99 -47 191 -62 331 -57
143 7 229 31 321 93 222 149 136 377 -173 456 -100 25 -269 25 -368 -1z"/>
<path d="M3925 6741 c-235 -38 -404 -165 -405 -305 0 -50 32 -118 72 -151 40
-34 129 -78 193 -96 73 -20 292 -18 373 4 240 65 374 227 303 366 -39 75 -127
135 -246 168 -62 17 -223 25 -290 14z"/>
<path d="M1869 5640 c-191 -101 -261 -491 -135 -756 136 -287 401 -229 492
107 12 44 18 101 18 184 0 129 -15 208 -59 302 -28 62 -102 145 -150 167 -44
21 -122 20 -166 -4z"/>
<path d="M3100 3461 c-83 -26 -137 -80 -186 -186 -43 -94 -58 -169 -57 -295 0
-174 50 -318 143 -410 95 -96 212 -91 305 12 136 149 167 479 66 694 -63 134
-180 214 -271 185z"/>
<path d="M5775 5641 c-84 -38 -161 -159 -191 -302 -23 -108 -14 -278 20 -385
47 -146 136 -242 234 -252 67 -6 114 11 164 62 93 92 139 231 139 411 0 273
-125 485 -286 485 -22 0 -58 -9 -80 -19z"/>
<path d="M4648 4901 c-112 -71 -179 -238 -179 -446 0 -183 47 -321 141 -415
69 -70 148 -87 226 -49 193 93 267 482 144 755 -74 164 -214 229 -332 155z"/>
<path d="M5814 3962 c-82 -39 -155 -143 -190 -272 -25 -90 -25 -290 0 -379 73
-267 254 -371 406 -234 143 129 191 438 104 672 -65 175 -203 267 -320 213z"/>
<path d="M4763 3314 c-18 -9 -51 -36 -74 -61 -172 -186 -171 -610 2 -799 101
-110 216 -110 316 -2 70 77 107 168 124 310 26 214 -50 449 -172 534 -52 35
-145 44 -196 18z"/>
<path d="M8595 5646 c-125 -25 -194 -56 -263 -119 -105 -97 -107 -213 -6 -311
44 -43 153 -97 234 -117 79 -20 279 -17 359 5 181 49 292 149 293 264 0 118
-109 220 -289 267 -83 22 -243 27 -328 11z"/>
</g>
</svg>
